<svg width="24" height="24" viewBox="0 0 24 24" fill="none" xmlns="http://www.w3.org/2000/svg">
    <rect x="4" y="4" width="16" height="16" rx="3" stroke="black" stroke-width="2"/>
    <path d="M8.28087 10.3753C7.93586 9.94404 7.30657 9.87412 6.8753 10.2191C6.44404 10.5641 6.37412 11.1934 6.71913 11.6247L8.28087 10.3753ZM11.5 16L10.7191 16.6247C10.9169 16.8719 11.2199 17.0108 11.5362 16.9993C11.8525 16.9879 12.1447 16.8273 12.324 16.5665L11.5 16ZM17.824 8.56653C18.1369 8.11142 18.0216 7.48884 17.5665 7.17596C17.1114 6.86307 16.4888 6.97837 16.176 7.43347L17.824 8.56653ZM6.71913 11.6247L10.7191 16.6247L12.2809 15.3753L8.28087 10.3753L6.71913 11.6247ZM12.324 16.5665L17.824 8.56653L16.176 7.43347L10.676 15.4335L12.324 16.5665Z" fill="black"/>
</svg>
