<svg width="60" height="36" viewBox="0 0 60 36" fill="none" xmlns="http://www.w3.org/2000/svg">
    <path fill-rule="evenodd" clip-rule="evenodd" d="M41.704 0.188119C48.1411 1.77001 51.0845 9.13703 48.0451 16.0589L47.7406 16.7521L47.9806 17.0629C48.2143 17.3657 48.7884 18.717 48.7884 18.9644C48.7884 19.1035 48.907 19.125 50.9463 19.355C54.7291 19.782 58.1861 20.8901 59.5549 22.1147L60 22.513V24.2575C60 26.3189 59.9797 26.3587 58.7448 26.716C58.0162 26.9268 55.8142 27.2462 55.0894 27.2462C54.6666 27.2462 54.6247 27.3413 54.9293 27.6084C55.5412 28.1451 55.7393 31.9313 55.1928 32.6452C53.9443 34.2764 43.0993 36.1111 35.3931 35.9947C31.3577 35.9338 31.2174 35.8813 31.2147 34.4285L31.2147 34.4075C31.2136 33.8261 31.213 33.5437 31.0677 33.4158C30.9305 33.295 30.6642 33.3121 30.1464 33.3451L30.1265 33.3464C20.6098 33.9542 8.79438 32.8846 7.94025 31.3379C7.82415 31.1276 7.75893 27.7927 7.86631 27.5514C7.96009 27.3402 7.76173 27.2829 4.81512 26.6687C1.71522 26.0226 0.714581 25.6379 0.215771 24.9C-0.0959969 24.439 -0.0602036 21.1139 0.260513 20.7446C1.03897 19.848 4.75152 18.3634 7.51497 17.8437C8.02434 17.7479 8.1149 17.698 8.07167 17.5376C7.985 17.2165 8.43023 17.009 9.22141 17.0014C10.0197 16.9938 9.98552 16.9627 8.63139 16.4632C7.86458 16.1803 7.66945 15.7609 8.1964 15.5282C8.46559 15.4093 9.6358 15.5113 10.2543 15.7074C10.4199 15.7599 10.4074 15.7284 10.1945 15.5576C10.0463 15.4386 9.87652 15.3397 9.81723 15.3379C9.40617 15.3251 8.57749 14.8054 8.57749 14.5603C8.57749 13.8814 10.2257 13.7748 11.9786 14.3402C13.7712 14.9183 17.2816 16.9003 18.3341 17.9283C19.1517 18.7271 19.1646 18.5731 18.3985 17.1596C17.2053 14.9579 16.3034 13.7575 14.7392 12.2889C13.2018 10.8454 13.0043 10.5295 13.4302 10.1954C13.7505 9.94406 14.1823 10.0203 14.815 10.44C15.463 10.8699 15.498 10.7383 14.9003 10.1192C14.2937 9.49066 14.2156 9.06839 14.7061 9.06839C15.0063 9.06839 15.7019 9.48105 16.0071 9.84022C16.0912 9.93915 16.2592 10.0715 16.3803 10.1344C16.6299 10.2638 16.5586 10.1338 15.8837 9.22896C15.2594 8.39195 15.7806 7.91567 16.6856 8.49611C18.6348 9.74609 20.3273 12.9417 20.7676 16.2041L20.9055 17.2255L21.2367 17.1617C25.1499 16.4072 26.7499 14.8295 30.0804 8.44157C33.1555 2.54361 34.2864 1.23951 37.1479 0.291022C38.1722 -0.0485063 40.525 -0.101577 41.704 0.188119ZM0.431496 21.1301C0.950787 20.362 4.90202 18.8161 7.61436 18.3196C8.11436 18.2281 8.59991 18.1301 8.69306 18.1019C8.78631 18.0736 8.88947 18.0765 8.92224 18.1083C8.95501 18.1401 9.7034 18.2831 10.5853 18.4261C14.6499 19.0853 16.7868 19.609 18.0863 20.2642C18.951 20.7002 19.0612 20.7896 19.7585 21.6213C20.6291 22.6599 22.566 23.9969 24.3423 24.7853C26.192 25.6064 29.6915 26.7117 30.496 26.7289C30.6595 26.7323 30.8397 26.9 31.0869 27.2788C31.9656 28.6253 32.8793 28.6241 33.7698 27.2751C33.9743 26.9654 34.1989 26.6974 34.269 26.6798C35.6789 26.3248 36.9871 25.9301 37.407 25.7332C37.8801 25.5112 37.9621 25.5003 38.1587 25.6338C39.0247 26.2217 44.9899 25.1325 47.4078 23.9452C48.9127 23.2061 49.508 21.887 49.1226 20.1453C49.1147 20.1096 49.107 20.0758 49.0997 20.0438C49.0473 19.8128 49.0161 19.6751 49.073 19.601C49.1571 19.4916 49.4333 19.5209 50.1175 19.5935C50.1817 19.6003 50.2495 19.6075 50.321 19.615C54.6006 20.063 58.7114 21.3943 59.5233 22.5951C59.9913 23.2871 58.7264 23.6703 54.6962 24.0571C52.7158 24.2473 52.0477 24.4957 51.7953 25.1357C51.6028 25.6232 51.9212 26.031 52.9562 26.623C54.591 27.5581 55.041 28.0335 55.041 28.8256C55.041 29.2022 54.9759 29.3945 54.7671 29.635C53.9392 30.5885 48.5059 31.7542 41.2421 32.5368C39.1093 32.7666 32.8256 32.8078 32.1075 32.5967C31.4182 32.3942 31.3646 32.1874 31.8326 31.5393C32.589 30.4924 32.014 30.0232 30.0844 30.1129C20.366 30.5645 10.5404 29.8164 8.49739 28.4692C7.95913 28.1142 8.02068 27.808 8.76614 27.1334C9.91124 26.0969 10.0628 25.5585 9.3927 24.909C8.8221 24.356 7.9505 24.0883 4.26533 23.3336C1.71587 22.8114 0.703159 22.3919 0.42276 21.7417C0.283154 21.4178 0.284126 21.348 0.431496 21.1301ZM42.625 32.8982C42.7338 33.3371 42.757 34.4631 42.6651 34.8464C42.5899 35.1601 42.5931 35.2904 42.6761 35.2904C43.0066 35.2904 47.4506 34.6319 47.5095 34.5743C47.5472 34.5372 47.5128 34.1543 47.433 33.7233C47.3531 33.2924 47.2858 32.7513 47.2834 32.5209L47.2791 32.1019L44.9344 32.4288C43.1273 32.6807 42.5977 32.7883 42.625 32.8982ZM47.8869 31.9975C48.1159 31.9599 49.0067 31.792 49.8664 31.6242C50.7262 31.4564 51.5388 31.2906 51.6721 31.2554C51.8879 31.1987 51.9147 31.2297 51.9147 31.5348C51.9147 31.9879 52.1319 33.206 52.253 33.4317C52.2565 33.4383 52.26 33.4446 52.2635 33.4507L52.2685 33.4596C52.288 33.4943 52.3032 33.5211 52.2998 33.5456C52.2885 33.6288 52.0633 33.6848 51.0715 33.9311C50.9975 33.9494 50.9193 33.9689 50.8367 33.9894C49.8525 34.2343 48.0002 34.5514 47.901 34.4919C47.8554 34.4647 47.816 34.2453 47.8134 34.0045C47.8091 33.6028 47.7654 33.3387 47.5477 32.3982C47.4731 32.0762 47.4837 32.0635 47.8869 31.9975ZM53.0197 30.8506C52.5305 31.0027 52.1303 31.1655 52.1303 31.2123C52.1303 31.2592 52.2082 31.6905 52.3034 32.1709C52.3986 32.6513 52.4774 33.15 52.4786 33.2794C52.4811 33.5636 52.487 33.5639 53.2237 33.3183C54.8966 32.7605 55.041 32.5833 55.041 31.0875V29.9606L54.475 30.2674C54.1638 30.436 53.5089 30.6985 53.0197 30.8506ZM53.2433 26.3685C51.8563 25.5458 51.7997 24.9657 53.0753 24.6448C53.2967 24.5891 53.7097 24.5114 53.9933 24.4721L54.5086 24.4009L54.4245 24.8572C54.2968 25.5489 54.3542 26.3881 54.5488 26.6758C54.8534 27.1264 54.302 26.9966 53.2433 26.3685ZM56.173 24.2711C55.8172 24.3044 55.3442 24.357 55.1219 24.3878L54.7176 24.4439L54.7236 25.2966C54.727 25.7655 54.7883 26.3138 54.8599 26.5149L54.99 26.8806L55.7942 26.8424C57.0635 26.7822 57.5807 26.6831 57.5342 26.5088C57.469 26.2648 57.4916 25.2176 57.5747 24.6323L57.6517 24.0899L57.2357 24.1502C57.0069 24.1833 56.5287 24.2378 56.173 24.2711ZM57.8376 24.0422L58.4074 23.9187C58.7208 23.8507 59.1118 23.7274 59.2762 23.6447L59.5754 23.4944L59.5451 24.7692L59.5149 26.044L58.922 26.2702C58.8608 26.2936 58.8032 26.3158 58.7491 26.3367C58.3536 26.4896 58.1416 26.5715 58.0256 26.5023C57.8916 26.4224 57.8857 26.1409 57.8728 25.5344C57.8713 25.4625 57.8697 25.386 57.8677 25.3047L57.8376 24.0422ZM31.6199 33.9584C31.6433 34.6049 31.6791 35.1857 31.6995 35.2492C31.7683 35.4631 32.6617 35.6156 34.2002 35.6763L35.7289 35.7366L35.7857 35.3829C35.817 35.1883 35.8721 34.5997 35.9082 34.0749L35.9739 33.1206L34.1072 33.0724C33.0805 33.046 32.1192 32.973 31.971 32.9104C31.8227 32.8477 31.6735 32.7934 31.6395 32.7897C31.6054 32.7861 31.5967 33.312 31.6199 33.9584ZM37.469 33.0962C38.1508 33.0954 39.2666 33.0485 39.9485 32.9919C40.6303 32.9353 41.4399 32.8601 41.7477 32.8248L42.3071 32.7607L42.3406 34.0303C42.3722 35.2297 42.3621 35.3023 42.1584 35.3419C41.2706 35.5147 36.4209 35.7818 36.1308 35.674C35.9945 35.6233 35.9836 35.5565 36.074 35.3261C36.1355 35.1693 36.1956 34.6037 36.2075 34.0694L36.2292 33.0978L37.469 33.0962ZM28.2248 30.5517L27.3354 30.6191V31.9237V33.2284L27.7396 33.1601C27.9619 33.1226 28.8055 33.0625 29.6143 33.0264L31.0845 32.9609L31.1317 32.4094C31.1652 32.0178 31.2645 31.7492 31.4743 31.4826C32.2742 30.4663 31.6634 30.2913 28.2248 30.5517ZM21.5868 32.7831C21.5974 32.582 21.6217 32.0128 21.6407 31.5182L21.6757 30.6189L24.4058 30.6302L27.1359 30.6415L27.074 30.9418C27.0399 31.107 27.012 31.6837 27.012 32.2234V33.2045L24.2899 33.1767L21.5679 33.1488L21.5868 32.7831ZM15.6577 31.1899C15.6208 31.6928 15.5596 32.2532 15.5219 32.4354C15.4546 32.761 15.4618 32.768 15.9234 32.8286C16.6977 32.9302 19.4563 33.0944 20.409 33.0955L21.2984 33.0965L21.2993 32.3913C21.2998 32.0036 21.3301 31.4454 21.3666 31.151L21.4329 30.6158L19.8833 30.5404C19.031 30.4989 17.8486 30.4292 17.2557 30.3855C16.6628 30.342 16.0758 30.2993 15.9513 30.291C15.7419 30.277 15.7197 30.3449 15.6577 31.1899ZM10.518 31.9414C10.5476 31.8584 10.5675 31.2853 10.5624 30.6676C10.5571 30.0499 10.5813 29.5507 10.6163 29.5581C10.6346 29.5621 10.7318 29.5829 10.8716 29.6129L10.966 29.6332L11.3265 29.7105C11.6822 29.7868 12.6282 29.9248 13.4287 30.0172C14.2291 30.1094 14.9933 30.2064 15.1269 30.2325C15.3672 30.2795 15.3691 30.2933 15.3006 31.5054C15.2625 32.1794 15.2234 32.7412 15.2136 32.754C15.0703 32.9393 10.4471 32.1393 10.518 31.9414ZM8.46332 31.3272C8.64346 31.4745 9.07026 31.6804 9.41189 31.7847C9.75341 31.889 10.0934 31.9968 10.1676 32.0242C10.271 32.0625 10.3024 31.7717 10.3024 30.7769V29.4796L9.79028 29.3524C9.50869 29.2824 9.03565 29.1172 8.73919 28.985L8.20017 28.7448L8.16794 29.902L8.13582 31.0594L8.46332 31.3272ZM6.14813 26.4345C6.17982 26.3543 6.2058 25.7991 6.2058 25.2005C6.2058 25.1238 6.20548 25.052 6.20517 24.9848V24.9828C6.20301 24.5074 6.20192 24.264 6.32241 24.1746C6.44876 24.0809 6.70877 24.1565 7.24142 24.3112C7.31383 24.3323 7.39128 24.3548 7.47412 24.3785C9.50428 24.9602 9.86175 25.5482 8.80042 26.5606L8.25979 27.0762L7.17517 26.8281C6.3578 26.6411 6.10468 26.5442 6.14813 26.4345ZM2.52278 23.8975C2.54445 24.2684 2.48753 24.7575 2.38167 25.1103C2.28411 25.4355 2.21931 25.7142 2.23763 25.7296C2.32743 25.8051 5.63271 26.5149 5.89446 26.5149C5.9474 26.5149 5.97844 25.9489 5.96346 25.2571C5.93834 24.0936 5.92012 23.9961 5.72068 23.9578C5.6021 23.9349 4.87442 23.778 4.10362 23.6091C3.33282 23.4401 2.65366 23.2961 2.59437 23.289C2.52958 23.2811 2.501 23.5239 2.52278 23.8975ZM1.2784 25.3721C0.914024 25.2052 0.537888 24.9532 0.442589 24.8121C0.212318 24.4716 0.237984 22.0903 0.468899 22.3608C0.545116 22.45 0.974937 22.6806 1.42416 22.8735L2.24098 23.2241L2.1873 24.283C2.11399 25.7327 2.10051 25.7488 1.2784 25.3721ZM38.2236 0.442399C35.0358 1.00288 33.651 2.43005 30.5736 8.32613C28.716 11.8851 28.1793 12.7866 27.1764 14.0312C25.7045 15.8579 23.8656 17.0236 21.8216 17.4255C20.4656 17.6922 20.119 17.8168 19.7194 18.1813C18.0062 19.744 20.4574 22.7628 24.9701 24.6482C26.0578 25.1027 26.0979 25.1046 25.937 24.6944C25.6402 23.9377 25.917 23.0464 26.5255 22.8001C26.9132 22.643 28.4639 22.4429 29.3028 22.4414L29.8149 22.4406V21.9808C29.8149 20.9965 30.6101 17.3448 30.8818 17.0816C31.2246 16.7494 31.1624 17.3477 30.6234 19.5676C30.1103 21.6812 30.1514 24.2751 30.7197 25.6177C30.8416 25.9059 30.8642 25.7678 30.9318 24.321C31.0118 22.6103 31.1736 21.6892 31.3265 22.0749C31.372 22.1898 31.3831 23.1771 31.351 24.2688C31.2887 26.3906 31.4083 27.2132 31.8337 27.5858C32.0154 27.745 32.0257 27.7009 32.0419 26.6901C32.0673 25.0987 32.1871 23.9424 32.3484 23.7286C32.47 23.5675 32.4895 23.8487 32.4742 25.5433C32.4555 27.6137 32.5188 27.9605 32.8648 27.6822C32.9703 27.5973 32.9989 27.3961 32.9637 26.9855C32.9039 26.286 33.127 23.4618 33.2796 22.989C33.4684 22.4041 33.6245 22.5841 33.5514 23.3025C33.356 25.221 33.344 27.097 33.5284 26.8551C34.4541 25.6409 35.4792 21.7658 35.4029 19.7687C35.3519 18.4319 35.5385 18.3784 35.7631 19.6655C35.7881 19.8094 35.9943 19.5769 36.4764 18.8612C38.0069 16.5892 39.8389 16.143 40.7131 17.8294L40.9926 18.3686L41.1777 17.9756C41.6961 16.8752 42.5016 16.5257 43.3029 17.0534C44.0309 17.5327 44.468 19.041 44.1158 19.8581L43.9482 20.2467H44.311C45.1615 20.2467 47.2102 17.3949 48.0413 15.0542C48.3018 14.3206 48.301 14.2248 48.0343 14.1573C47.5266 14.0286 47.6694 13.4063 48.2079 13.4006C49.1152 13.391 48.9874 8.38861 48.0197 6.03876C46.3959 2.09522 42.2602 -0.267371 38.2236 0.442399ZM44.5852 4.24501C44.7486 4.19215 44.3971 3.75431 44.0054 3.52291C43.6235 3.29715 43.074 3.26059 42.8807 3.4479C42.6716 3.65057 42.7314 3.74919 43.0209 3.67888C43.3959 3.58768 43.7558 3.69393 44.144 4.01047C44.3262 4.15892 44.5247 4.26454 44.5852 4.24501ZM39.3286 3.68453C39.7434 3.74439 39.8313 3.66865 39.6035 3.4479C39.2996 3.1534 38.5142 3.37059 38.0165 3.88678C37.7358 4.17804 37.792 4.39053 38.094 4.17919C38.8155 3.67429 38.9325 3.62748 39.3286 3.68453ZM45.2837 7.08555C45.6215 6.45225 45.3903 5.83943 44.6475 5.40055C43.7167 4.85052 42.5153 5.54566 42.6815 6.53802C42.8712 7.67111 44.7592 8.06841 45.2837 7.08555ZM39.593 7.13538C40.1452 6.60029 40.014 5.72765 39.3272 5.36649C38.1753 4.76088 36.7189 5.98078 37.2981 7.06622C37.6924 7.80535 38.8652 7.84066 39.593 7.13538ZM32.3044 7.50657C32.8735 7.80169 33.3639 7.24863 33.0045 6.71708C32.8158 6.43794 32.4251 6.37171 32.2081 6.582C31.9886 6.79471 32.049 7.3741 32.3044 7.50657ZM41.6566 7.85456C41.4925 7.88631 41.3293 7.86688 41.2938 7.81131C41.2044 7.671 40.8802 7.6849 40.7246 7.83565C40.5139 8.03989 40.5749 8.30733 40.9187 8.68676C41.2829 9.08877 41.2928 9.14131 41.1138 9.72039C40.7744 10.8181 39.1522 10.5305 38.7628 9.30356C38.6944 9.08803 38.6163 8.84504 38.5891 8.76365C38.4727 8.41358 38.3062 8.85433 38.3784 9.32121C38.5859 10.6625 40.3192 11.2722 41.167 10.3022C41.4383 9.9917 41.4802 9.97509 41.5766 10.1392C42.1133 11.0527 44.1155 10.7022 44.4803 9.63086C44.7149 8.94219 44.4251 8.83365 44.1225 9.49683C43.9237 9.93236 43.7738 10.1101 43.5183 10.2127C42.4615 10.6368 41.1466 9.59795 41.836 8.88348C42.3721 8.32802 42.2688 7.73588 41.6566 7.85456ZM47.8275 8.96392C48.3402 8.96392 48.4918 8.53121 48.1337 8.09003C47.883 7.78111 47.7333 7.75134 47.4479 7.95349C47.0204 8.25645 47.2862 8.96392 47.8275 8.96392ZM46.4227 10.4103C46.7627 10.3638 46.8605 9.82998 46.5671 9.62198C46.3205 9.44741 46.2528 9.45107 46.047 9.6504C45.7218 9.96569 45.972 10.4719 46.4227 10.4103ZM30.6286 11.0574C31.1949 11.5129 32.4381 10.1628 31.9172 9.65802L31.9125 9.65355C31.8309 9.57438 31.7801 9.5252 31.7197 9.50818C31.6206 9.48026 31.4956 9.53894 31.1653 9.69391L31.154 9.69918C30.4747 10.0178 30.2045 10.7164 30.6286 11.0574ZM47.7297 12.1577C48.0712 12.0137 48.2954 10.922 48.0068 10.8091C47.392 10.5687 46.6628 11.6112 47.1105 12.0906C47.2944 12.2875 47.3958 12.2985 47.7297 12.1577ZM31.3689 15.2773C32.1821 15.0795 32.6851 13.2108 32.0424 12.7747C32.0212 12.7603 32.002 12.747 31.9844 12.7348C31.9041 12.6791 31.8565 12.6462 31.8049 12.6384C31.73 12.627 31.6465 12.6687 31.4417 12.7709C31.4264 12.7785 31.4096 12.7869 31.393 12.7952C31.3761 12.8036 31.3586 12.8123 31.3402 12.8214C29.9622 13.5026 29.9869 15.6133 31.3689 15.2773ZM29.396 14.1811C29.6859 14.0306 29.8575 13.5795 29.6962 13.3912C29.5298 13.197 29.2126 13.2099 28.8343 13.4265C28.1587 13.8132 28.7007 14.5416 29.396 14.1811ZM27.929 15.9623C28.1316 15.5823 28.1305 15.4953 27.9207 15.2918C27.5982 14.9793 26.5961 15.1885 26.4321 15.6025C26.0194 16.6447 27.3891 16.974 27.929 15.9623ZM16.3945 9.28872C16.1863 9.03643 16.016 8.78967 16.016 8.74025C16.016 8.27233 17.5069 9.57497 18.2971 10.7332C19.3188 12.2309 19.743 13.2856 20.2225 15.5205C20.587 17.2188 20.5973 17.3215 20.4032 17.3215C20.3257 17.3215 20.0375 17.4599 19.7626 17.6288L19.2626 17.9361L18.7076 16.9236C17.6129 14.9263 16.616 13.6077 15.0787 12.1235C13.2338 10.3422 13.205 9.82048 15.0167 10.9983C15.7402 11.4687 16.016 11.5694 16.016 11.3633C16.016 11.1348 15.4527 10.1931 15.0981 9.82894C14.3036 9.01261 15.0319 9.42192 16.2058 10.4515C16.7772 10.9526 16.9249 11.0251 17.0319 10.8572C17.147 10.6767 16.7658 9.73878 16.3945 9.28872ZM8.97151 14.5531C8.98067 14.6105 9.25611 14.758 9.58351 14.881C10.2774 15.1415 11.3773 15.8525 11.3791 16.0418C11.3809 16.2231 10.6045 16.21 9.83459 16.0157C8.98014 15.8 8.0804 15.8 8.46968 16.0157C8.61791 16.0978 8.81196 16.1666 8.9009 16.1687C9.20631 16.1759 10.3823 16.7777 10.5534 17.0143C10.8188 17.3815 10.677 17.4409 9.71482 17.3653C8.01788 17.2319 8.21321 17.7271 9.94757 17.9553C12.8854 18.3419 16.9991 19.3009 18.0963 19.8551C18.464 20.0409 18.8001 20.2086 18.843 20.2276C18.8859 20.2467 18.868 20.115 18.8033 19.935C18.7386 19.7549 18.715 19.4289 18.7511 19.2107C18.8134 18.833 18.7865 18.7862 18.1978 18.2442C16.8813 17.0323 13.2588 15.0672 11.3804 14.546C10.8174 14.3898 8.94629 14.3953 8.97151 14.5531ZM41.4313 18.3068C41.6836 17.8511 41.9922 17.396 42.117 17.2954C42.691 16.8332 43.4485 17.3317 43.7709 18.3837C44.1522 19.6281 43.8956 20.1952 42.8242 20.4756C41.254 20.8865 38.8234 23.0008 37.9921 24.6791C37.6799 25.3094 37.3508 25.4885 35.6481 25.954C34.9632 26.1413 34.3947 26.2853 34.385 26.2741C34.3753 26.2629 34.6013 25.5721 34.8873 24.7389C35.471 23.038 35.7441 21.871 35.7441 21.0772C35.7441 20.6913 35.8073 20.4631 35.9695 20.2632C36.0935 20.1105 36.4937 19.5392 36.8589 18.9937C38.4108 16.6755 40.1184 16.5212 40.611 18.6546C40.7739 19.3602 40.8708 19.319 41.4313 18.3068ZM46.8587 18.2618C46.5723 18.6927 46.0605 19.3392 45.7215 19.6982C45.2013 20.2491 45.1411 20.3512 45.3357 20.3512C45.8128 20.3512 46.5245 20.5849 46.5245 20.7415C46.5245 20.8733 46.3957 20.8864 45.708 20.8239C43.4414 20.6181 42.428 20.7857 41.3649 21.5419C40.7738 21.9624 39.051 23.677 38.8577 24.0372L38.7334 24.2688L38.9905 24.0483C40.1434 23.0599 42.9453 21.7093 43.843 21.7093C44.1974 21.7093 43.9768 21.8632 43.3318 22.0658C41.8918 22.5183 39.7772 23.7673 38.86 24.7072C38.197 25.3864 38.293 25.7169 38.979 25.1164C39.7082 24.478 41.9971 23.5702 43.479 23.3317C44.3223 23.196 43.943 23.4292 42.6673 23.8308C41.5307 24.1885 39.8327 24.9308 39.2567 25.3219C38.1613 26.0653 44.9238 24.6661 46.9334 23.7335C48.5805 22.9691 49.065 22.1242 48.804 20.4717C48.6564 19.5376 48.2175 18.0862 47.8994 17.4809C47.8799 17.4437 47.8624 17.4089 47.8465 17.3771C47.7853 17.2553 47.7456 17.1765 47.6926 17.1668C47.5952 17.1491 47.4525 17.3647 47.0478 17.9764C46.9903 18.0634 46.9274 18.1583 46.8587 18.2618ZM26.4841 24.8452C26.0872 23.9514 26.2121 23.3713 26.8575 23.11C27.0596 23.0281 27.8066 22.931 28.5197 22.8939L29.8149 22.8264V23.0899C29.8149 23.54 30.1335 25.1506 30.3397 25.7424L30.5361 26.306H30.2542C29.9369 26.306 28.7682 26.0102 27.5351 25.6179C26.7295 25.3617 26.7055 25.344 26.4841 24.8452ZM43.9588 5.74624C43.7588 5.94004 43.8055 6.22796 44.0582 6.35896C44.3928 6.53249 44.7701 6.16684 44.591 5.84257C44.4558 5.59769 44.1587 5.55245 43.9588 5.74624ZM38.5401 6.35572C38.2414 6.51065 37.9862 6.30443 38.0294 5.94327C38.0508 5.76567 38.1362 5.66277 38.2788 5.64303C38.7351 5.57961 38.9431 6.14678 38.5401 6.35572Z" fill="black"/>
    <path fill-rule="evenodd" clip-rule="evenodd" d="M38.2236 0.442399C35.0358 1.00288 33.651 2.43005 30.5736 8.32613C28.716 11.8851 28.1793 12.7866 27.1764 14.0312C25.7045 15.8579 23.8656 17.0236 21.8216 17.4255C20.4656 17.6922 20.119 17.8168 19.7194 18.1813C18.0062 19.744 20.4574 22.7628 24.9701 24.6482C26.0578 25.1027 26.0979 25.1046 25.937 24.6944C25.6402 23.9377 25.917 23.0464 26.5255 22.8001C26.9132 22.643 28.4639 22.4429 29.3028 22.4414L29.8149 22.4406V21.9808C29.8149 20.9965 30.6101 17.3448 30.8818 17.0816C31.2246 16.7494 31.1624 17.3477 30.6234 19.5676C30.1103 21.6812 30.1514 24.2751 30.7197 25.6177C30.8416 25.9059 30.8642 25.7678 30.9318 24.321C31.0118 22.6103 31.1736 21.6892 31.3265 22.0749C31.372 22.1898 31.3831 23.1771 31.351 24.2688C31.2887 26.3906 31.4083 27.2132 31.8337 27.5858C32.0154 27.745 32.0257 27.7009 32.0419 26.6901C32.0673 25.0987 32.1871 23.9424 32.3484 23.7286C32.47 23.5675 32.4895 23.8487 32.4742 25.5433C32.4555 27.6137 32.5188 27.9605 32.8648 27.6822C32.9703 27.5973 32.9989 27.3961 32.9637 26.9855C32.9039 26.286 33.127 23.4618 33.2796 22.989C33.4684 22.4041 33.6245 22.5841 33.5514 23.3025C33.356 25.221 33.344 27.097 33.5284 26.8551C34.4541 25.6409 35.4792 21.7658 35.4029 19.7687C35.3519 18.4319 35.5385 18.3784 35.7631 19.6655C35.7881 19.8094 35.9943 19.5769 36.4764 18.8612C38.0069 16.5892 39.8389 16.143 40.7131 17.8294L40.9926 18.3686L41.1777 17.9756C41.6961 16.8752 42.5016 16.5257 43.3029 17.0534C44.0309 17.5327 44.468 19.041 44.1158 19.8581L43.9482 20.2467H44.311C45.1615 20.2467 47.2102 17.3949 48.0413 15.0542C48.3018 14.3206 48.301 14.2248 48.0343 14.1573C47.5266 14.0286 47.6694 13.4063 48.2079 13.4006C49.1152 13.391 48.9874 8.38861 48.0197 6.03876C46.3959 2.09522 42.2602 -0.267371 38.2236 0.442399ZM44.5852 4.24501C44.7486 4.19215 44.3971 3.75431 44.0054 3.52291C43.6235 3.29715 43.074 3.26059 42.8807 3.4479C42.6716 3.65057 42.7314 3.74919 43.0209 3.67888C43.3959 3.58768 43.7558 3.69393 44.144 4.01047C44.3262 4.15892 44.5247 4.26454 44.5852 4.24501ZM39.3286 3.68453C39.7434 3.74439 39.8313 3.66865 39.6035 3.4479C39.2996 3.1534 38.5142 3.37059 38.0165 3.88678C37.7358 4.17804 37.792 4.39053 38.094 4.17919C38.8155 3.67429 38.9325 3.62748 39.3286 3.68453ZM45.2837 7.08555C45.6215 6.45225 45.3903 5.83943 44.6475 5.40055C43.7167 4.85052 42.5153 5.54566 42.6815 6.53802C42.8712 7.67111 44.7592 8.06841 45.2837 7.08555ZM39.593 7.13538C40.1452 6.60029 40.014 5.72765 39.3272 5.36649C38.1753 4.76088 36.7189 5.98078 37.2981 7.06622C37.6924 7.80535 38.8652 7.84066 39.593 7.13538ZM32.3044 7.50657C32.8735 7.80169 33.3639 7.24863 33.0045 6.71708C32.8158 6.43794 32.4251 6.37171 32.2081 6.582C31.9886 6.79471 32.049 7.3741 32.3044 7.50657ZM41.6566 7.85456C41.4925 7.88631 41.3293 7.86688 41.2938 7.81131C41.2044 7.671 40.8802 7.6849 40.7246 7.83565C40.5139 8.03989 40.5749 8.30733 40.9187 8.68676C41.2829 9.08877 41.2928 9.14131 41.1138 9.72039C40.7744 10.8181 39.1522 10.5305 38.7628 9.30356C38.6944 9.08803 38.6163 8.84504 38.5891 8.76365C38.4727 8.41358 38.3062 8.85433 38.3784 9.32121C38.5859 10.6625 40.3192 11.2722 41.167 10.3022C41.4383 9.9917 41.4802 9.97509 41.5766 10.1392C42.1133 11.0527 44.1155 10.7022 44.4803 9.63086C44.7149 8.94219 44.4251 8.83365 44.1225 9.49683C43.9237 9.93236 43.7738 10.1101 43.5183 10.2127C42.4615 10.6368 41.1466 9.59795 41.836 8.88348C42.3721 8.32802 42.2688 7.73588 41.6566 7.85456ZM47.8275 8.96392C48.3402 8.96392 48.4918 8.53121 48.1337 8.09003C47.883 7.78111 47.7333 7.75134 47.4479 7.95349C47.0204 8.25645 47.2862 8.96392 47.8275 8.96392ZM46.4227 10.4103C46.7627 10.3638 46.8605 9.82998 46.5671 9.62198C46.3205 9.44741 46.2528 9.45107 46.047 9.6504C45.7218 9.96569 45.972 10.4719 46.4227 10.4103ZM30.6286 11.0574C31.1949 11.5129 32.4381 10.1628 31.9172 9.65802L31.9125 9.65355C31.8309 9.57438 31.7801 9.5252 31.7197 9.50818C31.6206 9.48026 31.4956 9.53894 31.1653 9.69391L31.154 9.69918C30.4747 10.0178 30.2045 10.7164 30.6286 11.0574ZM47.7297 12.1577C48.0712 12.0137 48.2954 10.922 48.0068 10.8091C47.392 10.5687 46.6628 11.6112 47.1105 12.0906C47.2944 12.2875 47.3958 12.2985 47.7297 12.1577ZM31.3689 15.2773C32.1821 15.0795 32.6851 13.2108 32.0424 12.7747C32.0212 12.7603 32.002 12.747 31.9844 12.7348C31.9041 12.6791 31.8565 12.6462 31.8049 12.6384C31.73 12.627 31.6465 12.6687 31.4417 12.7709L31.393 12.7952L31.3402 12.8214C29.9622 13.5026 29.9869 15.6133 31.3689 15.2773ZM29.396 14.1811C29.6859 14.0306 29.8575 13.5795 29.6962 13.3912C29.5298 13.197 29.2126 13.2099 28.8343 13.4265C28.1587 13.8132 28.7007 14.5416 29.396 14.1811ZM27.929 15.9623C28.1316 15.5823 28.1305 15.4953 27.9207 15.2918C27.5982 14.9793 26.5961 15.1885 26.4321 15.6025C26.0194 16.6447 27.3891 16.974 27.929 15.9623Z" fill="#3C9AAE"/>
    <path d="M8.97151 14.5531C8.98067 14.6105 9.25611 14.758 9.58351 14.881C10.2774 15.1415 11.3773 15.8525 11.3791 16.0418C11.3809 16.2231 10.6045 16.21 9.83459 16.0157C8.98014 15.8 8.0804 15.8 8.46968 16.0157C8.61791 16.0978 8.81196 16.1666 8.9009 16.1687C9.20631 16.1759 10.3823 16.7777 10.5534 17.0143C10.8188 17.3815 10.677 17.4409 9.71482 17.3653C8.01788 17.2319 8.21321 17.7271 9.94757 17.9553C12.8854 18.3419 16.9991 19.3009 18.0963 19.8551C18.464 20.0409 18.8001 20.2086 18.843 20.2276C18.8859 20.2467 18.868 20.115 18.8033 19.935C18.7386 19.7549 18.715 19.4289 18.7511 19.2107C18.8134 18.833 18.7865 18.7862 18.1978 18.2442C16.8813 17.0323 13.2588 15.0672 11.3804 14.546C10.8174 14.3898 8.94629 14.3953 8.97151 14.5531Z" fill="#3C9AAE"/>
    <path d="M16.016 8.74025C16.016 8.78967 16.1863 9.03643 16.3945 9.28872C16.7658 9.73878 17.147 10.6767 17.0319 10.8572C16.9249 11.0251 16.7772 10.9526 16.2058 10.4515C15.0319 9.42192 14.3036 9.01261 15.0981 9.82894C15.4527 10.1931 16.016 11.1348 16.016 11.3633C16.016 11.5694 15.7402 11.4687 15.0167 10.9983C13.205 9.82048 13.2338 10.3422 15.0787 12.1235C16.616 13.6077 17.6129 14.9263 18.7076 16.9236L19.2626 17.9361L19.7626 17.6288C20.0375 17.4599 20.3257 17.3215 20.4032 17.3215C20.5973 17.3215 20.587 17.2188 20.2225 15.5205C19.743 13.2856 19.3188 12.2309 18.2971 10.7332C17.5069 9.57497 16.016 8.27233 16.016 8.74025Z" fill="#3C9AAE"/>
    <path d="M46.8587 18.2618C46.5723 18.6927 46.0605 19.3392 45.7215 19.6982C45.2013 20.2491 45.1411 20.3512 45.3357 20.3512C45.8128 20.3512 46.5245 20.5849 46.5245 20.7415C46.5245 20.8733 46.3957 20.8864 45.708 20.8239C43.4414 20.6181 42.428 20.7857 41.3649 21.5419C40.7738 21.9624 39.051 23.677 38.8577 24.0372L38.7334 24.2688L38.9905 24.0483C40.1434 23.0599 42.9453 21.7093 43.843 21.7093C44.1974 21.7093 43.9768 21.8632 43.3318 22.0658C41.8918 22.5183 39.7772 23.7673 38.86 24.7072C38.197 25.3864 38.293 25.7169 38.979 25.1164C39.7082 24.478 41.9971 23.5702 43.479 23.3317C44.3223 23.196 43.943 23.4292 42.6673 23.8308C41.5307 24.1885 39.8327 24.9308 39.2567 25.3219C38.1613 26.0653 44.9238 24.6661 46.9334 23.7335C48.5805 22.9691 49.065 22.1242 48.804 20.4717C48.6564 19.5376 48.2175 18.0862 47.8994 17.4809C47.8799 17.4437 47.8624 17.4089 47.8465 17.3771C47.7853 17.2553 47.7456 17.1765 47.6926 17.1668C47.5952 17.1491 47.4525 17.3647 47.0478 17.9764C46.9903 18.0634 46.9274 18.1583 46.8587 18.2618Z" fill="#3C9AAE"/>
    <path d="M42.117 17.2954C41.9922 17.396 41.6836 17.8511 41.4313 18.3068C40.8708 19.319 40.7739 19.3602 40.611 18.6546C40.1184 16.5212 38.4108 16.6755 36.8589 18.9937C36.4937 19.5392 36.0935 20.1105 35.9695 20.2632C35.8073 20.4631 35.7441 20.6913 35.7441 21.0772C35.7441 21.871 35.471 23.038 34.8873 24.7389C34.6013 25.5721 34.3753 26.2629 34.385 26.2741C34.3947 26.2853 34.9632 26.1413 35.6481 25.954C37.3508 25.4885 37.6799 25.3094 37.9921 24.6791C38.8234 23.0008 41.254 20.8865 42.8242 20.4756C43.8956 20.1952 44.1522 19.6281 43.7709 18.3837C43.4485 17.3317 42.691 16.8332 42.117 17.2954Z" fill="#ADE0EC"/>
    <path d="M26.8575 23.11C26.2121 23.3713 26.0872 23.9514 26.4841 24.8452C26.7055 25.344 26.7295 25.3617 27.5351 25.6179C28.7682 26.0102 29.9369 26.306 30.2542 26.306H30.5361L30.3397 25.7424C30.1335 25.1506 29.8149 23.54 29.8149 23.0899V22.8264L28.5197 22.8939C27.8066 22.931 27.0596 23.0281 26.8575 23.11Z" fill="#ADE1EC"/>
    <path d="M7.61436 18.3196C4.90202 18.8161 0.950787 20.362 0.431496 21.1301C0.284126 21.348 0.283154 21.4178 0.42276 21.7417C0.703159 22.3919 1.71587 22.8114 4.26533 23.3336C7.9505 24.0883 8.8221 24.356 9.3927 24.909C10.0628 25.5585 9.91124 26.0969 8.76614 27.1334C8.02068 27.808 7.95913 28.1142 8.49739 28.4692C10.5404 29.8164 20.366 30.5645 30.0844 30.1129C32.014 30.0232 32.589 30.4924 31.8326 31.5393C31.3646 32.1874 31.4182 32.3942 32.1075 32.5967C32.8256 32.8078 39.1093 32.7666 41.2421 32.5368C48.5059 31.7542 53.9392 30.5885 54.7671 29.635C54.9759 29.3945 55.041 29.2022 55.041 28.8256C55.041 28.0335 54.591 27.5581 52.9562 26.623C51.9212 26.031 51.6028 25.6232 51.7953 25.1357C52.0477 24.4957 52.7158 24.2473 54.6962 24.0571C58.7264 23.6703 59.9913 23.2871 59.5233 22.5951C58.7114 21.3943 54.6006 20.063 50.321 19.615L50.1175 19.5935C49.4333 19.5209 49.1571 19.4916 49.073 19.601C49.0161 19.6751 49.0473 19.8128 49.0997 20.0438C49.107 20.0758 49.1147 20.1096 49.1226 20.1453C49.508 21.887 48.9127 23.2061 47.4078 23.9452C44.9899 25.1325 39.0247 26.2217 38.1587 25.6338C37.9621 25.5003 37.8801 25.5112 37.407 25.7332C36.9871 25.9301 35.6789 26.3248 34.269 26.6798C34.1989 26.6974 33.9743 26.9654 33.7698 27.2751C32.8793 28.6241 31.9656 28.6253 31.0869 27.2788C30.8397 26.9 30.6595 26.7323 30.496 26.7289C29.6915 26.7117 26.192 25.6064 24.3423 24.7853C22.566 23.9969 20.6291 22.6599 19.7585 21.6213C19.0612 20.7896 18.951 20.7002 18.0863 20.2642C16.7868 19.609 14.6499 19.0853 10.5853 18.4261C9.7034 18.2831 8.95501 18.1401 8.92224 18.1083C8.88947 18.0765 8.78631 18.0736 8.69306 18.1019C8.59991 18.1301 8.11436 18.2281 7.61436 18.3196Z" fill="#DEDFF7"/>
    <path d="M38.0294 5.94327C37.9862 6.30443 38.2414 6.51065 38.5401 6.35572C38.9431 6.14678 38.7351 5.57961 38.2788 5.64303C38.1362 5.66277 38.0508 5.76567 38.0294 5.94327Z" fill="white"/>
    <path d="M43.9588 5.74624C43.7588 5.94004 43.8055 6.22796 44.0582 6.35896C44.3928 6.53249 44.7701 6.16684 44.591 5.84257C44.4558 5.59769 44.1587 5.55245 43.9588 5.74624Z" fill="white"/>
</svg>
